<svg xmlns="http://www.w3.org/2000/svg" xmlns:xlink="http://www.w3.org/1999/xlink" version="1.1" id="Layer_1" x="0px" y="0px" width="100px" height="100px" viewBox="5.0 -10.0 100.0 135.0" enable-background="new 0 0 100 100" xml:space="preserve">
<g>
	<g>
		<path fill-rule="evenodd" clip-rule="evenodd" d="M3.285,32.492l45.747,23.581c1.075,0.554,2.818,0.554,3.893,0l45.747-23.581    c1.075-0.554,1.075-1.453,0-2.007L52.925,6.905c-1.075-0.554-2.818-0.554-3.893,0L3.285,30.485    C2.21,31.04,2.21,31.938,3.285,32.492z M98.672,49.485l-12.516-6.451L53.233,60.005c-1.247,0.643-3.27,0.643-4.517,0    L15.797,43.036L3.285,49.485c-1.075,0.554-1.075,1.452,0,2.007l45.747,23.581c1.075,0.554,2.818,0.554,3.893,0l45.747-23.581    C99.747,50.938,99.747,50.04,98.672,49.485z M98.672,68.485l-12.516-6.451L53.233,79.005c-1.247,0.643-3.27,0.643-4.517,0    L15.797,62.036L3.285,68.485c-1.075,0.555-1.075,1.453,0,2.007l45.747,23.581c1.075,0.554,2.818,0.554,3.893,0l45.747-23.581    C99.747,69.938,99.747,69.04,98.672,68.485z"/>
	</g>
</g>
<text x="0.0" y="117.5" font-size="5.0" font-weight="bold" font-family="Helvetica Neue, Helvetica, Arial-Unicode, Arial, Sans-serif" fill="#000000">Created by Rohith M S</text><text x="0.0" y="122.5" font-size="5.0" font-weight="bold" font-family="Helvetica Neue, Helvetica, Arial-Unicode, Arial, Sans-serif" fill="#000000">from the Noun Project</text></svg>